<svg xmlns="http://www.w3.org/2000/svg" fill="none" viewBox="0 0 136 40" height="40" width="136">
<g clip-path="url(#clip0_7_72)">
<path fill="white" d="M90.2039 23.9839V17.9195H82.5524V23.9839H90.2039ZM13.1697 10.0885H16.9452V13.5815H13.1697V10.0885ZM110.566 27.3561L110.627 17.9195H103.639V27.3561H37.4162V40H26.3234V27.3561H0V0H3.77543V23.9839H13.1697V15.1831H16.9452V23.9839H26.3234V0H30.0988V36.2253H33.6408V27.3561H31.0407V23.9839H43.9689V13.839H58.4146V21.6016H49.5838V19.171H54.6392V16.4829H47.7444V23.9879H66.3156V0H70.0911V23.9839H78.773V14.1449H93.9753V23.9839H99.8639V14.1449H114.402V23.9839H120.693V14.1449H135.61V34.6197H120.597V30.8451H131.834V27.3521H110.566V27.3561ZM132.032 17.9195H124.469V23.9839H132.032V17.9195Z"></path>
</g>
<defs>
<clipPath id="clip0_7_72">
<rect fill="white" height="40" width="135.61"></rect>
</clipPath>
</defs>
</svg>
